<?xml version="1.0" encoding="utf-8"?>
<!-- Generator: Adobe Illustrator 21.0.0, SVG Export Plug-In . SVG Version: 6.00 Build 0)  -->
<svg version="1.1" id="Layer_1" xmlns="http://www.w3.org/2000/svg" xmlns:xlink="http://www.w3.org/1999/xlink" x="0px" y="0px"
	 viewBox="0 0 248 102.3" style="enable-background:new 0 0 248 102.3;" xml:space="preserve">
<style type="text/css">
	.st0{opacity:0.5;}
	.st1{fill:#008DED;}
	.st2{opacity:0.8;fill:#008DED;}
	.st3{fill:#00ADEE;}
	.st4{opacity:0.8;fill:#525F63;}
</style>
<image style="overflow:visible;" width="991" height="385" xlink:href="88AEEAC9.jpg"  transform="matrix(0.6338 0 0 0.6338 18 -289.5)">
</image>
<g class="st0">
	<circle class="st1" cx="227.7" cy="18" r="15.2"/>
	<g>
		<path class="st1" d="M27.5,95.9c-2.9-0.1-5.9-0.9-8.8-2.1C21.4,95.1,24.3,95.8,27.5,95.9z"/>
		<path class="st2" d="M6.7,82.9c2.3,4.8,6.8,8.7,12.1,10.9c-2.6-1.2-5-2.9-7.2-4.8C9.5,87.2,7.8,85.2,6.7,82.9z"/>
		<path class="st2" d="M27.5,95.9c0.4,0,0.7,0,1.1,0h19.5c-6.7,0-13.4,0-20,0C27.9,95.9,27.7,95.9,27.5,95.9z"/>
		<path class="st1" d="M236.9,36.8c-18.2,0-36.4,0-54.6,0c-2.2,0-2.6,0.4-2.6,2.6c0,11.8,0,23.7,0,35.5c0,3.4-2.2,5.5-5.9,5.4
			c-3.6,0-5.3-1.8-5.3-5.4c0-12,0-23.9,0-35.9c0-2.2-0.3-2.5-2.5-2.5c-23.8,0-47.6,0-71.4,0c-1.3,0-2.6,0.1-3.9,0.3
			c-8.4,1.6-16,6.8-16.3,18c-0.3,9.4,4.6,15.9,13.7,18.3c3.7,1,7.4,1.1,11.2,1c2.7-0.1,5.3-0.3,7.9,0.5c1.2,0.3,2.1,0.9,2.2,2.3
			c0.1,1.3-0.6,2.2-1.9,2.8c-1.2,0.5-2.5,0.6-3.7,0.6c-9.5,0-19.1,0-28.6,0c-1.9,0-3.7,0-5.6,0c-0.9,0-1.2-0.1-0.9-1.1
			c0.4-1.1,0.5-2.2,0.5-3.4c0-11.9,0-23.8,0-35.7c0-2-0.5-2.5-2.5-2.5c-7.2,0-14.4,0-21.6,0c-2.5,0-2.9,0.3-2.9,2.8c0,7,0,14,0,21
			c0,3.9,0,7.8,0,11.7c0,1.8-0.5,3.1-2.1,4c-1.8,1-3.6,1.1-5.5,0.6c-1.2-0.3-2-1.1-2.3-2.3C32,74.8,32,74.1,32,73.4
			c0-11.2,0-22.3,0-33.5c0-2-0.5-2.5-2.5-2.5c-7.1,0-14.2,0-21.3,0c-2.3,0-2.8,0.4-2.8,2.8c0,0.3,0,0.5,0,0.8L5.2,76.9
			c0,2.2,0.5,4.4,1.5,6.4c1.2,2.3,2.8,4.3,4.8,6.1c2.3,2,4.7,3.6,7.2,4.8c2.8,1.2,5.8,2,8.8,2.1c0.2,0,0.4,0,0.5,0
			c6.7,0,13.4,0,20,0c21.4,0,42.8,0,64.1,0c3.6,0,7.1-0.5,10.4-1.7c11.2-3.9,15.3-18.2,8-27.5c-2.8-3.5-6.5-5.4-10.7-6.7
			c-5-1.5-10.2-1.8-15.4-1.7c-1.2,0-2.4,0-3.5-0.5c-0.9-0.4-1.2-1.1-1.3-2c-0.1-0.9,0.3-1.4,1-1.9c1.3-0.8,2.7-1,4.3-1
			c11.7,0,23.5,0,35.2,0c1,0,1.2,0.3,1.2,1.3c0,7.7,0,15.4,0,23.1c0,1.9,0.4,3.8,1.1,5.5c2.7,5.9,7.3,9.8,13,12.6
			c8.3,4,17.2,4.9,26.2,3.4c7.2-1.2,13.5-4.2,18.5-9.7c3.6-4,5.8-8.6,5.6-14.2c-0.2-6.9,0-13.9-0.1-20.8c0-0.9,0.2-1.2,1.1-1.1
			c1.6,0.1,3.1,0.1,4.7,0c1.2-0.1,1.4,0.4,1.4,1.5c0,12.8,0,25.5,0,38.3c0,1.9,0.5,2.4,2.4,2.4c7.1,0,14.3,0,21.4,0
			c2,0,2.4-0.5,2.4-2.5c0-17.9,0-35.7,0-53.6C239.4,37.2,239,36.8,236.9,36.8z"/>
	</g>
</g>
<g>
	<circle class="st3" cx="227.9" cy="17.5" r="15.2"/>
	<g>
		<path class="st3" d="M27.7,95.4c-2.9-0.1-5.9-0.9-8.8-2.1C21.7,94.5,24.6,95.3,27.7,95.4z"/>
		<path class="st4" d="M6.9,82.3C9.1,87.1,13.7,91,19,93.3c-2.6-1.2-5-2.9-7.2-4.8C9.7,86.7,8.1,84.7,6.9,82.3z"/>
		<path class="st4" d="M27.7,95.4c0.4,0,0.7,0,1.1,0h19.5c-6.7,0-13.4,0-20,0C28.1,95.4,27.9,95.4,27.7,95.4z"/>
		<path class="st3" d="M237.1,36.3c-18.2,0-36.4,0-54.6,0c-2.2,0-2.6,0.4-2.6,2.6c0,11.8,0,23.7,0,35.5c0,3.4-2.2,5.5-5.9,5.4
			c-3.6,0-5.3-1.8-5.3-5.4c0-12,0-23.9,0-35.9c0-2.2-0.3-2.5-2.5-2.5c-23.8,0-47.6,0-71.4,0c-1.3,0-2.6,0.1-3.9,0.3
			c-8.4,1.6-16,6.8-16.3,18c-0.3,9.4,4.6,15.9,13.7,18.3c3.7,1,7.4,1.1,11.2,1c2.7-0.1,5.3-0.3,7.9,0.5c1.2,0.3,2.1,0.9,2.2,2.3
			c0.1,1.3-0.6,2.2-1.9,2.8c-1.2,0.5-2.5,0.6-3.7,0.6c-9.5,0-19.1,0-28.6,0c-1.9,0-3.7,0-5.6,0c-0.9,0-1.2-0.1-0.9-1.1
			c0.4-1.1,0.5-2.2,0.5-3.4c0-11.9,0-23.8,0-35.7c0-2-0.5-2.5-2.5-2.5c-7.2,0-14.4,0-21.6,0c-2.5,0-2.9,0.3-2.9,2.8c0,7,0,14,0,21
			c0,3.9,0,7.8,0,11.7c0,1.8-0.5,3.1-2.1,4c-1.8,1-3.6,1.1-5.5,0.6c-1.2-0.3-2-1.1-2.3-2.3c-0.2-0.7-0.2-1.4-0.2-2.1
			c0-11.2,0-22.3,0-33.5c0-2-0.5-2.5-2.5-2.5c-7.1,0-14.2,0-21.3,0c-2.3,0-2.8,0.4-2.8,2.8c0,0.3,0,0.5,0,0.8L5.4,76.3
			c0,2.2,0.5,4.4,1.5,6.4c1.2,2.3,2.8,4.3,4.8,6.1c2.3,2,4.7,3.6,7.2,4.8c2.8,1.2,5.8,2,8.8,2.1c0.2,0,0.4,0,0.5,0
			c6.7,0,13.4,0,20,0c21.4,0,42.8,0,64.1,0c3.6,0,7.1-0.5,10.4-1.7c11.2-3.9,15.3-18.2,8-27.5c-2.8-3.5-6.5-5.4-10.7-6.7
			c-5-1.5-10.2-1.8-15.4-1.7c-1.2,0-2.4,0-3.5-0.5c-0.9-0.4-1.2-1.1-1.3-2c-0.1-0.9,0.3-1.4,1-1.9c1.3-0.8,2.7-1,4.3-1
			c11.7,0,23.5,0,35.2,0c1,0,1.2,0.3,1.2,1.3c0,7.7,0,15.4,0,23.1c0,1.9,0.4,3.8,1.1,5.5c2.7,5.9,7.3,9.8,13,12.6
			c8.3,4,17.2,4.9,26.2,3.4c7.2-1.2,13.5-4.2,18.5-9.7c3.6-4,5.8-8.6,5.6-14.2c-0.2-6.9,0-13.9-0.1-20.8c0-0.9,0.2-1.2,1.1-1.1
			c1.6,0.1,3.1,0.1,4.7,0c1.2-0.1,1.4,0.4,1.4,1.5c0,12.8,0,25.5,0,38.3c0,1.9,0.5,2.4,2.4,2.4c7.1,0,14.3,0,21.4,0
			c2,0,2.4-0.5,2.4-2.5c0-17.9,0-35.7,0-53.6C239.7,36.7,239.2,36.3,237.1,36.3z"/>
	</g>
</g>
</svg>
